<svg width="20" height="20" viewBox="0 0 20 20" fill="none" xmlns="http://www.w3.org/2000/svg">
<g clip-path="url(#clip0_1_156)">
<path d="M8.75 11.25L0.892857 7.85714L19.1071 0.892857L12.1429 19.1071L8.75 11.25Z" fill="#FDDC5C"/>
<path fill-rule="evenodd" clip-rule="evenodd" d="M19.9411 1.21176C20.0669 0.882774 19.9876 0.510587 19.7384 0.261537C19.4894 0.0124885 19.1173 -0.0668788 18.7883 0.0589081L0.573986 7.0232C0.234766 7.1529 0.00790632 7.47514 0.000202245 7.83823C-0.00750191 8.20131 0.205486 8.5329 0.538897 8.67687L8.07076 11.9293L11.3232 19.4612C11.4671 19.7946 11.7987 20.0076 12.1618 19.9999C12.5249 19.9922 12.8471 19.7653 12.9768 19.426L19.9411 1.21176ZM8.37099 10.1138L3.26146 7.90743L17.5596 2.44053L12.0926 16.7386L9.88622 11.629L13.4362 8.07907C13.8546 7.66066 13.8546 6.98225 13.4362 6.56384C13.0178 6.14543 12.3394 6.14543 11.921 6.56384L8.37099 10.1138Z" fill="#0C098C"/>
</g>
<defs>
<clipPath id="clip0_1_156">
<rect width="20" height="20" fill="white"/>
</clipPath>
</defs>
</svg>
